<svg xmlns="http://www.w3.org/2000/svg" xmlns:xlink="http://www.w3.org/1999/xlink" width="500" zoomAndPan="magnify" viewBox="0 0 375 374.999991" height="500" preserveAspectRatio="xMidYMid meet" version="1.0"><defs><clipPath id="9ee08156fb"><path d="M 3.28125 0 L 371.53125 0 L 371.53125 375 L 3.28125 375 Z M 3.28125 0 " clip-rule="nonzero"/></clipPath></defs><g clip-path="url(#9ee08156fb)"><path fill="#5e17eb" d="M 279.863281 275.214844 C 282.992188 263.042969 285.375 250.5625 286.949219 237.777344 C 287.152344 236.121094 287.339844 234.457031 287.519531 232.789062 L 308.46875 232.789062 C 315.898438 232.789062 321.980469 226.597656 321.980469 219.027344 L 321.980469 198.265625 L 348.648438 198.351562 C 346.839844 226.472656 338.066406 252.683594 324.070312 275.214844 Z M 256.171875 336.378906 C 262.710938 324.085938 268.292969 311.328125 272.910156 298.148438 L 306.910156 298.148438 C 292.699219 314.046875 275.476562 327.097656 256.171875 336.378906 Z M 224.863281 347.570312 C 216.191406 349.675781 207.25 351.0625 198.105469 351.671875 L 198.105469 298.148438 L 248.964844 298.148438 C 242.355469 315.121094 233.9375 331.34375 223.6875 346.765625 Z M 264.996094 232.789062 C 263.316406 247.367188 260.535156 261.515625 256.652344 275.214844 L 198.105469 275.214844 L 198.105469 232.789062 Z M 186.28125 181.324219 L 175.003906 217.96875 L 167.972656 217.96875 L 167.777344 218.597656 L 167.625 217.96875 L 161.234375 217.96875 L 149.089844 174.058594 L 136.949219 217.96875 L 130.554688 217.96875 L 130.402344 218.597656 L 130.210938 217.96875 L 123.175781 217.96875 L 111.902344 181.324219 L 100.628906 217.96875 L 93.597656 217.96875 L 93.402344 218.597656 L 93.25 217.96875 L 86.859375 217.96875 L 68.28125 150.792969 L 86.136719 150.792969 L 94.429688 184.777344 L 104.953125 150.792969 L 111.855469 150.792969 L 111.902344 150.640625 L 111.949219 150.792969 L 118.851562 150.792969 L 129.375 184.777344 L 137.667969 150.792969 L 160.511719 150.792969 L 168.808594 184.777344 L 179.332031 150.792969 L 186.234375 150.792969 L 186.28125 150.640625 L 186.328125 150.792969 L 193.226562 150.792969 L 203.753906 184.777344 L 212.046875 150.792969 L 234.890625 150.792969 L 243.183594 184.777344 L 253.707031 150.792969 L 260.609375 150.792969 L 260.65625 150.640625 L 260.703125 150.792969 L 267.605469 150.792969 L 278.128906 184.777344 L 286.425781 150.792969 L 304.28125 150.792969 L 285.699219 217.96875 L 279.308594 217.96875 L 279.15625 218.597656 L 278.964844 217.96875 L 271.933594 217.96875 L 260.65625 181.324219 L 249.382812 217.96875 L 242.351562 217.96875 L 242.15625 218.597656 L 242.003906 217.96875 L 235.613281 217.96875 L 223.46875 174.058594 L 211.324219 217.96875 L 204.933594 217.96875 L 204.78125 218.597656 L 204.585938 217.96875 L 197.554688 217.96875 Z M 175.582031 275.214844 L 113.941406 275.214844 C 110.117188 261.511719 107.433594 247.363281 105.878906 232.789062 L 175.582031 232.789062 Z M 175.582031 351.597656 C 165.75 350.875 156.160156 349.25 146.886719 346.804688 C 136.574219 331.355469 128.125 315.125 121.554688 298.148438 L 175.582031 298.148438 Z M 67.902344 298.148438 L 96.785156 298.148438 C 100.9375 310.058594 105.917969 321.621094 111.6875 332.824219 C 95.191406 323.878906 80.382812 312.113281 67.902344 298.148438 Z M 50.742188 275.214844 C 36.566406 252.398438 27.75 225.808594 26.097656 197.285156 L 49.453125 197.363281 L 49.453125 219.027344 C 49.453125 226.597656 55.535156 232.789062 62.96875 232.789062 L 82.507812 232.789062 C 82.785156 235.609375 83.089844 238.421875 83.449219 241.21875 C 84.925781 252.800781 87.089844 264.132812 89.902344 275.214844 Z M 57.699219 89.453125 L 98.617188 89.453125 C 94.902344 101.621094 91.40625 114.957031 88.519531 129.214844 C 88.183594 130.871094 87.863281 132.523438 87.550781 134.171875 L 62.96875 134.171875 C 55.535156 134.171875 49.453125 140.363281 49.453125 147.933594 L 49.453125 174.429688 L 26.320312 174.355469 C 28.789062 142.707031 40.085938 113.550781 57.699219 89.453125 Z M 117.332031 39.230469 C 113.957031 46.8125 110.152344 55.988281 106.300781 66.519531 L 77.988281 66.519531 C 89.652344 55.566406 102.894531 46.335938 117.332031 39.230469 Z M 175.582031 89.453125 L 175.582031 134.171875 L 111.371094 134.171875 C 114.644531 117.925781 118.785156 102.859375 123.136719 89.453125 Z M 148.902344 27.675781 C 157.546875 25.515625 166.460938 24.0625 175.582031 23.386719 L 175.582031 66.519531 L 131.300781 66.519531 C 139.304688 45.921875 146.574219 31.980469 148.902344 27.675781 Z M 198.105469 89.453125 L 249.804688 89.453125 C 253.617188 102.035156 257.21875 115.976562 260.109375 130.921875 C 260.320312 132.007812 260.511719 133.089844 260.710938 134.171875 L 198.105469 134.171875 Z M 198.105469 23.3125 C 207.53125 23.945312 216.738281 25.402344 225.660156 27.613281 C 229.027344 34.378906 235.410156 48.003906 242.15625 66.519531 L 198.105469 66.519531 Z M 296.824219 66.519531 L 266.148438 66.519531 C 262.425781 55.671875 258.710938 46.15625 255.367188 38.222656 C 270.625 45.457031 284.59375 55.039062 296.824219 66.519531 Z M 317.109375 89.453125 C 334.921875 113.820312 346.273438 143.359375 348.570312 175.417969 L 321.980469 175.332031 L 321.980469 147.933594 C 321.980469 140.363281 315.898438 134.171875 308.46875 134.171875 L 283.605469 134.171875 C 283.121094 131.378906 282.617188 128.582031 282.066406 125.773438 C 279.546875 112.84375 276.542969 100.683594 273.339844 89.453125 Z M 187.40625 0.0117188 C 85.878906 0.0117188 3.28125 84.113281 3.28125 187.492188 C 3.28125 290.871094 85.878906 374.976562 187.40625 374.976562 C 288.933594 374.976562 371.53125 290.871094 371.53125 187.492188 C 371.53125 84.113281 288.933594 0.0117188 187.40625 0.0117188 " fill-opacity="1" fill-rule="nonzero"/></g></svg>